<?xml version="1.0" standalone="no"?>
<!DOCTYPE svg PUBLIC "-//W3C//DTD SVG 20010904//EN"
 "http://www.w3.org/TR/2001/REC-SVG-20010904/DTD/svg10.dtd">
<svg version="1.0" xmlns="http://www.w3.org/2000/svg"
 width="1155.000000pt" height="1155.000000pt" viewBox="0 0 1155.000000 1155.000000"
 preserveAspectRatio="xMidYMid meet">
<metadata>
Created by potrace 1.14, written by Peter Selinger 2001-2017
</metadata>
<g transform="translate(0.000000,1155.000000) scale(0.100000,-0.100000)"
fill="#000000" stroke="none">
<path d="M5480 11383 c-157 -91 -357 -207 -445 -258 -88 -50 -322 -186 -520
-300 -198 -114 -380 -219 -405 -233 -25 -14 -61 -35 -80 -47 -19 -12 -56 -34
-82 -48 -26 -14 -116 -66 -200 -115 -84 -49 -277 -160 -428 -247 -151 -87
-295 -170 -320 -185 -25 -15 -169 -98 -320 -185 -151 -87 -343 -198 -427 -247
-83 -48 -167 -96 -185 -106 -18 -10 -253 -146 -523 -302 -514 -297 -523 -302
-678 -390 l-97 -55 3 -2890 2 -2889 280 -162 c154 -90 289 -168 300 -175 11
-7 22 -12 25 -12 3 0 24 -12 47 -28 23 -16 44 -29 46 -29 3 0 66 -36 141 -80
76 -44 139 -80 141 -80 2 0 40 -22 85 -50 45 -27 83 -50 85 -50 2 0 48 -27
103 -59 55 -32 124 -72 154 -88 29 -17 116 -67 192 -111 76 -45 140 -82 142
-82 1 0 47 -26 101 -58 54 -32 105 -61 113 -65 8 -4 24 -13 35 -20 67 -41 147
-87 150 -87 3 0 28 -15 57 -33 29 -19 78 -47 108 -64 30 -16 154 -88 275 -158
121 -70 238 -138 260 -150 22 -12 92 -52 155 -90 63 -37 149 -87 190 -110 118
-67 137 -78 270 -155 69 -40 143 -83 165 -95 22 -13 225 -130 450 -260 226
-131 428 -248 451 -261 22 -12 135 -78 250 -145 115 -67 216 -121 225 -121 8
0 98 49 200 107 101 59 198 115 214 125 17 9 95 54 175 100 80 45 161 93 180
105 19 12 60 36 90 52 30 17 143 81 250 143 107 63 205 118 217 124 13 6 23
14 23 19 0 4 4 7 10 7 5 0 137 74 292 164 156 90 301 174 323 186 22 13 54 31
70 41 17 10 41 24 55 32 14 7 115 66 225 129 450 261 720 417 905 523 107 62
230 133 273 159 43 25 81 46 83 46 2 0 21 11 42 24 20 12 84 50 142 83 58 34
186 108 285 165 99 58 200 116 225 130 25 14 117 67 205 118 88 51 181 105
206 119 26 14 106 60 178 101 l131 75 0 2891 0 2890 -42 22 c-24 12 -63 35
-88 50 -25 15 -77 44 -115 66 -39 21 -82 47 -97 57 -15 11 -29 19 -32 19 -3 0
-66 36 -141 80 -75 44 -138 80 -140 80 -3 0 -28 15 -57 34 -29 18 -75 45 -103
60 -27 15 -65 36 -83 46 -17 11 -191 111 -385 223 -193 113 -440 255 -547 317
-107 62 -213 123 -235 135 -22 12 -75 43 -118 69 -43 25 -80 46 -82 46 -2 0
-51 28 -155 90 -35 20 -547 316 -565 326 -11 6 -36 20 -55 32 -19 11 -46 27
-60 35 -14 8 -169 97 -345 199 -176 102 -333 193 -350 202 -16 9 -46 26 -65
37 -36 22 -398 231 -460 267 -19 10 -75 43 -125 72 -98 57 -138 80 -188 109
-167 94 -207 117 -237 136 -47 29 -128 75 -132 75 -2 -1 -131 -75 -288 -167z"/>
</g>
</svg>
