<svg xmlns="http://www.w3.org/2000/svg" width="660" height="300" viewBox="0 0 660 300"><defs><style>.a{fill:#f8f8fc;}.b,.f,.g{fill:#e9e8f3;}.c,.d,.h,.j,.n{fill:none;}.c,.d,.e,.f,.g,.h,.l,.m,.n{stroke:#676096;}.c,.d,.e,.f,.g,.h,.j,.k,.l,.m,.o{stroke-linecap:round;stroke-linejoin:round;stroke-width:1.5px;}.c{stroke-dasharray:4 6;}.d,.e,.f,.l,.m,.o{fill-rule:evenodd;}.e{fill:#d4d2e6;}.i,.k,.o{fill:#fff;}.j,.k,.o{stroke:#ff7800;}.l{fill:#a8a4c3;}.m{fill:#f4f3fa;}.n{stroke-miterlimit:10;stroke-width:3px;}</style></defs><rect class="a" width="660" height="300"/><rect class="b" x="330" width="330" height="300"/><line class="c" x1="454.76" y1="151.5" x2="523.35" y2="151.48"/><polyline class="d" points="524.56 156.47 530.09 151.44 525 145.95"/><path class="e" d="M437.21,112.32H350.37q-4.2,0-4.2,4.2v60.83q0,4.13,4.2,4.12h86.84q4.13,0,4.13-4.12V116.52Q441.34,112.32,437.21,112.32Zm-20.14,88.34H372m34,0V181.47H383.05v19.19"/><rect class="a" x="349.47" y="116.57" width="88.57" height="60.71"/><polyline class="f" points="352.51 177.29 427.06 177.29 434.99 177.29"/><line class="g" x1="434.99" y1="116.57" x2="352.51" y2="116.57"/><path class="e" d="M633.4,112.32H546.56q-4.21,0-4.21,4.2v60.83q0,4.13,4.21,4.12H633.4q4.13,0,4.12-4.12V116.52Q637.52,112.32,633.4,112.32Zm-20.15,88.34H568.13m34,0V181.47H579.23v19.19"/><rect class="a" x="545.65" y="116.57" width="88.57" height="60.71"/><polyline class="f" points="548.7 177.29 623.25 177.29 631.18 177.29"/><line class="g" x1="631.18" y1="116.57" x2="548.7" y2="116.57"/><path class="e" d="M556.9,19.87H494.11c-2.19,0-3.28,1.1-3.28,3.28v42.5q0,3.22,3.28,3.22H556.9q3.23,0,3.22-3.22V23.15C560.12,21,559.05,19.87,556.9,19.87Z"/><path class="e" d="M572.37,81.81H479.94V84.9a3.24,3.24,0,0,0,2,.87h88.53a2.34,2.34,0,0,0,1.86-.87V81.81L561,71.78H491.14l-11.2,10m13.05-5h66.33"/><rect class="a" x="494.73" y="23.61" width="61.49" height="41.35"/><line class="h" x1="494.78" y1="64.98" x2="556.22" y2="64.96"/><line class="h" x1="556.17" y1="23.59" x2="494.78" y2="23.59"/><path class="e" d="M556.9,216.33H494.11q-3.28,0-3.28,3.27v42.51q0,3.21,3.28,3.21H556.9q3.23,0,3.22-3.21V219.6Q560.12,216.33,556.9,216.33Z"/><path class="e" d="M572.37,278.26H479.94v3.09a3.24,3.24,0,0,0,2,.87h88.53a2.34,2.34,0,0,0,1.86-.87v-3.09l-11.38-10H491.14l-11.2,10M493,273.31h66.33"/><rect class="a" x="494.73" y="220.06" width="61.49" height="41.35"/><line class="h" x1="494.78" y1="261.43" x2="556.22" y2="261.41"/><line class="h" x1="556.17" y1="220.05" x2="494.78" y2="220.05"/><path class="i" d="M519.77,43.37c0-1.92,2.08-3.53,4.21-3.53a3.85,3.85,0,0,1,4,3.53,3.45,3.45,0,0,1,0,.84l6.56,0a10.72,10.72,0,0,0-21.44,0h6.57C519.64,43.9,519.77,43.67,519.77,43.37Z"/><path class="j" d="M513.15,44.18a10.72,10.72,0,0,1,21.44,0"/><path class="j" d="M519.53,44.18a4.34,4.34,0,1,1,8.67,0"/><path class="k" d="M534.59,44.21a4.33,4.33,0,0,0,4.33,4.33h6a3.19,3.19,0,1,1,0,6.38h-6A10.72,10.72,0,0,1,528.2,44.21"/><path class="k" d="M513.15,44.21a4.33,4.33,0,0,1-4.33,4.33h0a5,5,0,0,1-1.92-.22l-.77-.31a3.2,3.2,0,1,0-2.87,5.71l.54.26a10.85,10.85,0,0,0,4.75.94h.27a10.72,10.72,0,0,0,10.71-10.71"/><path class="k" d="M536.87,54.73l.81-1.06a5.56,5.56,0,0,0,1.15-3.37V48.82"/><path class="k" d="M530.77,51.07l1.29-.34a5.5,5.5,0,0,0,3-1.94l.91-1.16"/><path class="k" d="M528.55,45l1.33.08a5.57,5.57,0,0,0,3.44-.92l1.23-.83"/><path class="k" d="M510.87,54.73l-.81-1.06a5.55,5.55,0,0,1-1.14-3.37V48.82"/><path class="k" d="M517,51.07l-1.29-.34a5.52,5.52,0,0,1-3-1.94l-.91-1.16"/><path class="k" d="M519.19,45l-1.33.08a5.59,5.59,0,0,1-3.44-.92l-1.22-.83"/><path class="k" d="M544.28,51.92a.51.51,0,1,1,.51-.51A.51.51,0,0,1,544.28,51.92Zm0-.64a.13.13,0,0,0-.13.13c0,.14.26.14.26,0A.13.13,0,0,0,544.28,51.28Z"/><path class="k" d="M527.06,41l1.28-.37a5.55,5.55,0,0,0,2.92-2l.87-1.19"/><path class="k" d="M524.77,39.84l.87-1a5.51,5.51,0,0,0,1.34-3.3l.08-1.47"/><path class="k" d="M520.59,41l-1.28-.37a5.55,5.55,0,0,1-2.92-2l-.88-1.19"/><path class="k" d="M522.87,39.84l-.87-1a5.56,5.56,0,0,1-1.33-3.3l-.08-1.47"/><path class="i" d="M583.73,144.93c0-2.38,2.56-4.37,5.2-4.37s4.94,2,4.94,4.37c0,.37.16.69.07,1l8.11,0a13.26,13.26,0,1,0-26.52,0h8.13C583.57,145.59,583.73,145.3,583.73,144.93Z"/><path class="j" d="M575.53,145.93a13.26,13.26,0,1,1,26.52,0"/><path class="j" d="M583.43,145.93a5.37,5.37,0,1,1,10.73,0"/><path class="k" d="M602.05,146a5.37,5.37,0,0,0,5.36,5.37h7.39a3.95,3.95,0,1,1,0,7.89h-7.39A13.26,13.26,0,0,1,594.16,146"/><path class="k" d="M575.53,146a5.37,5.37,0,0,1-5.36,5.37h0a6.12,6.12,0,0,1-2.37-.26l-1-.39a3.95,3.95,0,0,0-3.54,7.06l.66.32a13.31,13.31,0,0,0,5.88,1.17h.33A13.26,13.26,0,0,0,583.43,146"/><path class="k" d="M604.88,159l1-1.31a6.87,6.87,0,0,0,1.42-4.17v-1.83"/><path class="k" d="M597.33,154.45l1.59-.41a6.87,6.87,0,0,0,3.69-2.41l1.13-1.44"/><path class="k" d="M594.59,147l1.64.11a6.87,6.87,0,0,0,4.25-1.15l1.52-1"/><path class="k" d="M572.71,159l-1-1.31a6.87,6.87,0,0,1-1.42-4.17v-1.83"/><path class="k" d="M580.27,154.45l-1.6-.41a6.87,6.87,0,0,1-3.69-2.41l-1.13-1.44"/><path class="k" d="M583,147l-1.65.11a6.89,6.89,0,0,1-4.25-1.15l-1.52-1"/><path class="k" d="M614.05,155.51a.64.64,0,0,1-.64-.64.64.64,0,0,1,.64-.63.63.63,0,0,1,.63.63A.64.64,0,0,1,614.05,155.51Zm0-.8a.17.17,0,0,0-.17.16c0,.18.33.18.33,0A.16.16,0,0,0,614.05,154.71Z"/><path class="k" d="M592.74,142l1.58-.46a6.8,6.8,0,0,0,3.61-2.52l1.09-1.47"/><path class="k" d="M589.91,140.56l1.08-1.25a6.83,6.83,0,0,0,1.64-4.08l.11-1.83"/><path class="k" d="M584.73,142l-1.58-.46a6.8,6.8,0,0,1-3.61-2.52l-1.09-1.47"/><path class="k" d="M587.56,140.56l-1.08-1.25a6.9,6.9,0,0,1-1.65-4.08l-.1-1.83"/><path class="i" d="M387.86,144.93c0-2.38,2.57-4.37,5.21-4.37s4.94,2,4.94,4.37c0,.37.16.69.06,1l8.12,0a13.26,13.26,0,0,0-26.52,0h8.13C387.7,145.59,387.86,145.3,387.86,144.93Z"/><path class="j" d="M379.67,145.93a13.26,13.26,0,0,1,26.52,0"/><path class="j" d="M387.56,145.93a5.37,5.37,0,1,1,10.73,0"/><path class="k" d="M406.19,146a5.37,5.37,0,0,0,5.36,5.37h7.39a3.95,3.95,0,1,1,0,7.89h-7.39A13.26,13.26,0,0,1,398.29,146"/><path class="k" d="M379.67,146a5.37,5.37,0,0,1-5.36,5.37h0a6.17,6.17,0,0,1-2.38-.26l-.95-.39a3.95,3.95,0,0,0-3.54,7.06l.66.32a13.28,13.28,0,0,0,5.88,1.17h.33A13.26,13.26,0,0,0,387.56,146"/><path class="k" d="M409,159l1-1.31a6.86,6.86,0,0,0,1.41-4.17v-1.83"/><path class="k" d="M401.46,154.45l1.6-.41a6.87,6.87,0,0,0,3.69-2.41l1.13-1.44"/><path class="k" d="M398.72,147l1.65.11a6.89,6.89,0,0,0,4.25-1.15l1.52-1"/><path class="k" d="M376.85,159l-1-1.31a6.87,6.87,0,0,1-1.42-4.17v-1.83"/><path class="k" d="M384.4,154.45l-1.6-.41a6.91,6.91,0,0,1-3.69-2.41L378,150.19"/><path class="k" d="M387.14,147l-1.64.11a6.92,6.92,0,0,1-4.26-1.15l-1.52-1"/><path class="k" d="M418.18,155.51a.64.64,0,0,1-.63-.64.63.63,0,0,1,.63-.63.64.64,0,0,1,.64.63A.64.64,0,0,1,418.18,155.51Zm0-.8a.16.16,0,0,0-.16.16c0,.18.32.18.32,0A.16.16,0,0,0,418.18,154.71Z"/><path class="k" d="M396.87,142l1.59-.46a6.8,6.8,0,0,0,3.61-2.52l1.08-1.47"/><path class="k" d="M394.05,140.56l1.07-1.25a6.78,6.78,0,0,0,1.65-4.08l.1-1.83"/><path class="k" d="M388.87,142l-1.59-.46a6.84,6.84,0,0,1-3.61-2.52l-1.08-1.47"/><path class="k" d="M391.69,140.56l-1.07-1.25a6.9,6.9,0,0,1-1.65-4.08l-.1-1.83"/><path class="i" d="M519.77,239.91c0-1.92,2.08-3.53,4.21-3.53a3.85,3.85,0,0,1,4,3.53,3.45,3.45,0,0,1,0,.84l6.56,0a10.72,10.72,0,0,0-21.44,0h6.57C519.64,240.44,519.77,240.21,519.77,239.91Z"/><path class="j" d="M513.15,240.72a10.72,10.72,0,0,1,21.44,0"/><path class="j" d="M519.53,240.72a4.34,4.34,0,1,1,8.67,0"/><path class="k" d="M534.59,240.75a4.33,4.33,0,0,0,4.33,4.33h6a3.19,3.19,0,1,1,0,6.38h-6a10.71,10.71,0,0,1-10.72-10.71"/><path class="k" d="M513.15,240.75a4.33,4.33,0,0,1-4.33,4.33h0a5,5,0,0,1-1.92-.22l-.77-.31a3.2,3.2,0,0,0-2.87,5.71l.54.26a10.85,10.85,0,0,0,4.75.94h.27a10.71,10.71,0,0,0,10.71-10.71"/><path class="k" d="M536.87,251.27l.81-1.06a5.56,5.56,0,0,0,1.15-3.37v-1.48"/><path class="k" d="M530.77,247.61l1.29-.34a5.5,5.5,0,0,0,3-1.94l.91-1.16"/><path class="k" d="M528.55,241.58l1.33.08a5.57,5.57,0,0,0,3.44-.92l1.23-.83"/><path class="k" d="M510.87,251.27l-.81-1.06a5.55,5.55,0,0,1-1.14-3.37v-1.48"/><path class="k" d="M517,247.61l-1.29-.34a5.52,5.52,0,0,1-3-1.94l-.91-1.16"/><path class="k" d="M519.19,241.58l-1.33.08a5.59,5.59,0,0,1-3.44-.92l-1.22-.83"/><path class="k" d="M544.28,248.46a.51.51,0,1,1,.51-.51A.51.51,0,0,1,544.28,248.46Zm0-.64a.13.13,0,0,0-.13.13c0,.14.26.14.26,0A.13.13,0,0,0,544.28,247.82Z"/><path class="k" d="M527.06,237.58l1.28-.37a5.55,5.55,0,0,0,2.92-2l.87-1.19"/><path class="k" d="M524.77,236.38l.87-1a5.51,5.51,0,0,0,1.34-3.3l.08-1.47"/><path class="k" d="M520.59,237.58l-1.28-.37a5.55,5.55,0,0,1-2.92-2l-.88-1.19"/><path class="k" d="M522.87,236.38l-.87-1a5.56,5.56,0,0,1-1.33-3.3l-.08-1.47"/><line class="c" x1="236.17" y1="151.5" x2="140.95" y2="151.48"/><polyline class="d" points="139.74 156.47 134.2 151.44 139.29 145.95"/><line class="c" x1="251.54" y1="93.3" x2="192.84" y2="62.56"/><polyline class="d" points="188.31 66.64 186.31 59.42 193.54 57.49"/><path class="e" d="M26.77,116.52v60.83q0,4.13,4.13,4.12h86.84q4.2,0,4.2-4.12V116.52q0-4.2-4.2-4.2H30.9Q26.78,112.32,26.77,116.52Zm69.4,84.14H51m34,0V181.47H62.14v19.19"/><rect class="a" x="30.07" y="116.57" width="88.57" height="60.71" transform="translate(148.71 293.86) rotate(-180)"/><polyline class="f" points="115.6 177.29 41.05 177.29 33.12 177.29"/><line class="g" x1="33.12" y1="116.57" x2="115.6" y2="116.57"/><path class="e" d="M102.16,22.15v42.5q0,3.22,3.21,3.22h62.8c2.18,0,3.28-1.07,3.28-3.22V22.15c0-2.18-1.1-3.28-3.28-3.28h-62.8C103.23,18.87,102.16,20,102.16,22.15Z"/><path class="e" d="M182.34,80.81l-11.2-10H101.29l-11.38,10V83.9a2.33,2.33,0,0,0,1.85.87H180.3a3.24,3.24,0,0,0,2-.87V80.81H89.91m13-5h66.32"/><rect class="a" x="106.06" y="22.61" width="61.49" height="41.35" transform="translate(273.6 86.57) rotate(-180)"/><line class="h" x1="167.5" y1="63.98" x2="106.06" y2="63.96"/><line class="h" x1="106.11" y1="22.59" x2="167.5" y2="22.59"/><path class="e" d="M102.16,219.6v42.51q0,3.21,3.21,3.21h62.8c2.18,0,3.28-1.07,3.28-3.21V219.6c0-2.18-1.1-3.27-3.28-3.27h-62.8Q102.16,216.33,102.16,219.6Z"/><path class="e" d="M182.34,278.26l-11.2-10H101.29l-11.38,10v3.09a2.33,2.33,0,0,0,1.85.87H180.3a3.24,3.24,0,0,0,2-.87v-3.09H89.91m13-4.95h66.32"/><rect class="a" x="106.06" y="220.06" width="61.49" height="41.35" transform="translate(273.6 481.48) rotate(-180)"/><line class="h" x1="167.5" y1="261.43" x2="106.06" y2="261.41"/><line class="h" x1="106.11" y1="220.05" x2="167.5" y2="220.05"/><line class="c" x1="407.34" y1="97.75" x2="471.8" y2="62.56"/><polyline class="d" points="476.34 66.64 478.34 59.42 471.11 57.49"/><line class="c" x1="407.34" y1="213.36" x2="471.8" y2="248.55"/><polyline class="d" points="476.34 244.47 478.34 251.69 471.11 253.61"/><line class="c" x1="254.86" y1="215.03" x2="191.3" y2="248.55"/><polyline class="d" points="186.76 244.47 184.76 251.69 191.99 253.61"/><path class="l" d="M239.85,167.14a19.21,19.21,0,0,0-.29,4.41v19.52a4.94,4.94,0,0,0,.58,2.39,6.65,6.65,0,0,0,1,1.45,6,6,0,0,0,4.14,1.66h61a5.78,5.78,0,0,0,4.14-1.66,9.64,9.64,0,0,0,1.09-1.45,5.34,5.34,0,0,0,.36-.87,6.82,6.82,0,0,0,.29-1.52V171.55a16.48,16.48,0,0,0-7.33-15q-5.44-3.84-14.66-5.64a25.77,25.77,0,0,1-9.15,6.58,14.75,14.75,0,0,1-10.39,0,25.66,25.66,0,0,1-9.14-6.58Q242.1,154.77,239.85,167.14Z"/><path class="m" d="M290.67,107a26.42,26.42,0,0,1,6,13.89V121c.05.62.09,1.25.14,1.88v.21a5.61,5.61,0,0,1,1.09.73l.8.79a6.83,6.83,0,0,1,1.45,4.42,7.13,7.13,0,0,1-1.45,4.49,4.65,4.65,0,0,1-3.56,1.88,25.21,25.21,0,0,1-4.43,7.67q-6.09,7.45-14.81,7.45T261,143.11a24.22,24.22,0,0,1-4.36-7.67,4.59,4.59,0,0,1-3.48-1.88,6.7,6.7,0,0,1-1.6-4.49,6.61,6.61,0,0,1,.94-3.55,2.52,2.52,0,0,1,.66-.87,4.43,4.43,0,0,1,1.81-1.44v-.29c.05-.68.12-1.35.22-2A25.54,25.54,0,0,1,261,107q6.16-7.45,14.88-7.46T290.67,107Z"/><path class="d" d="M255,123.21q5.44-11.58,11.76-13.68,5.6-1.74,12,4.63,7,6.87,18.08,9"/><path class="f" d="M266.71,109.53q5.6-1.74,12,4.63,7,6.87,18.08,9v-.21c0-.63-.09-1.26-.14-1.88v-.15a26.42,26.42,0,0,0-6-13.89q-6.09-7.45-14.81-7.46T261,107a25.54,25.54,0,0,0-5.81,13.89c-.1.68-.17,1.35-.22,2v.29Q260.4,111.63,266.71,109.53Z"/><polygon class="f" points="307.14 167.34 302.97 195.41 248.66 195.41 244.58 167.34 307.14 167.34"/><line class="n" x1="301.31" y1="200.49" x2="250.33" y2="200.49"/><ellipse class="i" cx="276.68" cy="192.88" rx="12.49" ry="12.64"/><path class="o" d="M273.54,180.63a13.79,13.79,0,0,1,2.09-.34l1.46-4.47,1.05,4.43a17.54,17.54,0,0,1,3.89,1.22l3.17-3L284,182.59a11.46,11.46,0,0,1,3.18,3.22l5.18-.67-4,3.06c.08.19.17.37.25.54a12.11,12.11,0,0,1,.5,6.31l3.39,1.93-3.93-.09a6,6,0,0,1-.54,1.43,11.67,11.67,0,0,1-3.43,4.3,1.52,1.52,0,0,1-.3.25l1.18,4.44-3.39-3.1a2.58,2.58,0,0,0-.42.25l-.84.34a12.53,12.53,0,0,1-6.77.46l-2.72,4.09.3-5a3,3,0,0,1-.42-.17,9.84,9.84,0,0,1-3.26-2.17l-4.48,2.42,0,0,2.72-4.52a11.29,11.29,0,0,1-1.5-2.88q-.09-.37-.21-.84l-5.27,0,4.81-2.76a12.11,12.11,0,0,1,.83-5.19l-4.51-3.89,6,1.09a12.14,12.14,0,0,1,3.89-3.47l-1.09-3.26,2.8,2.42a4.77,4.77,0,0,1,.54-.25C272.83,180.81,273.18,180.71,273.54,180.63Zm8.49.84-2.47,2.25a2.74,2.74,0,0,0-.25,1.63,1.51,1.51,0,0,0,1,1.13,1.55,1.55,0,0,0,1.47.25,1.73,1.73,0,0,0,1.29-.79l.88-3.35m5.14,12.46-2.84-1.79a1.8,1.8,0,0,0-1.51.16,1.55,1.55,0,0,0-.87,1.09,2,2,0,0,0,.16,1.42,1.77,1.77,0,0,0,1.09,1h3.43m-10.83-3.47a1.5,1.5,0,0,1-1.09.59,1.58,1.58,0,0,1-1.17-.42,1.64,1.64,0,0,1-.54-1.13,1.54,1.54,0,0,1,.38-1.13,1.57,1.57,0,0,1,1.08-.54,1.31,1.31,0,0,1,1.17.38,1.51,1.51,0,0,1,.17,2.25ZM274,205.26l1.63-2.47a1.92,1.92,0,0,0-.12-1.51,2.13,2.13,0,0,0-1.22-1,1.77,1.77,0,0,0-1.54,0,2.47,2.47,0,0,0-1.05,1.22l-.12,2.8"/><path class="o" d="M266.35,185.48l1.21.25a2.79,2.79,0,0,1,1.05,1,2.13,2.13,0,0,1-.17,1.55,2.19,2.19,0,0,1-1,1,2,2,0,0,1-1.58-.12l-1-.84"/><ellipse class="i" cx="136.94" cy="44.67" rx="12.49" ry="12.64"/><path class="o" d="M133.8,32.41a15.13,15.13,0,0,1,2.09-.33l1.47-4.47,1,4.43a17,17,0,0,1,3.89,1.21l3.18-3-1.26,4.14a11.2,11.2,0,0,1,3.18,3.22l5.18-.67-4,3,.25.55a12.1,12.1,0,0,1,.51,6.31l3.38,1.92-3.93-.08a5.9,5.9,0,0,1-.54,1.42,11.71,11.71,0,0,1-3.43,4.31,2.64,2.64,0,0,1-.29.25l1.17,4.43L142.33,56a2,2,0,0,0-.42.25l-.83.33a12.48,12.48,0,0,1-6.78.46l-2.71,4.1.29-5a3.13,3.13,0,0,1-.42-.16,9.86,9.86,0,0,1-3.26-2.18l-4.48,2.43,0,0,2.71-4.51A11.19,11.19,0,0,1,125,48.8c-.06-.25-.13-.53-.21-.83l-5.27,0,4.81-2.76a11.92,11.92,0,0,1,.84-5.18l-4.52-3.89,6,1.08a12.36,12.36,0,0,1,3.89-3.47l-1.09-3.26,2.8,2.43a2.61,2.61,0,0,1,.55-.25A10.52,10.52,0,0,1,133.8,32.41Zm8.49.84-2.47,2.26a2.73,2.73,0,0,0-.25,1.63,1.53,1.53,0,0,0,1,1.13,1.59,1.59,0,0,0,1.47.25,1.75,1.75,0,0,0,1.29-.8l.88-3.34m5.15,12.46L146.51,45a1.78,1.78,0,0,0-1.5.17,1.52,1.52,0,0,0-.88,1.09,2,2,0,0,0,.17,1.42,1.75,1.75,0,0,0,1.08,1h3.43M138,45.21a1.49,1.49,0,0,1-1.08.58,1.64,1.64,0,0,1-1.18-.41,1.66,1.66,0,0,1-.54-1.13,1.53,1.53,0,0,1,.38-1.13,1.56,1.56,0,0,1,1.08-.55,1.37,1.37,0,0,1,1.18.38A1.54,1.54,0,0,1,138.4,44,1.52,1.52,0,0,1,138,45.21ZM134.3,57l1.63-2.47a1.9,1.9,0,0,0-.12-1.5,2.07,2.07,0,0,0-1.21-1,1.76,1.76,0,0,0-1.55,0A2.49,2.49,0,0,0,132,53.36l-.12,2.8"/><path class="o" d="M126.61,37.26l1.21.26a2.71,2.71,0,0,1,1.05,1,2.09,2.09,0,0,1-.17,1.55,2.32,2.32,0,0,1-1,1,2.07,2.07,0,0,1-1.59-.13l-1-.83"/><ellipse class="i" cx="136.94" cy="241.97" rx="12.49" ry="12.64"/><path class="o" d="M133.8,229.72a13.79,13.79,0,0,1,2.09-.34l1.47-4.47,1,4.43a17.49,17.49,0,0,1,3.89,1.21l3.18-3-1.26,4.14a11.33,11.33,0,0,1,3.18,3.22l5.18-.67-4,3.05.25.55a12.1,12.1,0,0,1,.51,6.31l3.38,1.92-3.93-.08a5.9,5.9,0,0,1-.54,1.42,11.71,11.71,0,0,1-3.43,4.31,2.64,2.64,0,0,1-.29.25l1.17,4.43-3.39-3.09a2,2,0,0,0-.42.25l-.83.33a12.48,12.48,0,0,1-6.78.46l-2.71,4.1.29-5a3.13,3.13,0,0,1-.42-.16,9.71,9.71,0,0,1-3.26-2.18l-4.48,2.43,0,0,2.71-4.52a11.29,11.29,0,0,1-1.5-2.88l-.21-.84-5.27,0,4.81-2.76a11.94,11.94,0,0,1,.84-5.18l-4.52-3.89,6,1.09a12.13,12.13,0,0,1,3.89-3.47l-1.09-3.27,2.8,2.43a3.24,3.24,0,0,1,.55-.25A10.52,10.52,0,0,1,133.8,229.72Zm8.49.83-2.47,2.26a2.73,2.73,0,0,0-.25,1.63,1.53,1.53,0,0,0,1,1.13,1.59,1.59,0,0,0,1.47.25,1.76,1.76,0,0,0,1.29-.79l.88-3.35m5.15,12.46-2.85-1.8a1.82,1.82,0,0,0-1.5.17,1.54,1.54,0,0,0-.88,1.09,2,2,0,0,0,.17,1.42,1.75,1.75,0,0,0,1.08,1h3.43M138,242.51a1.54,1.54,0,0,1-1.08.59,1.7,1.7,0,0,1-1.18-.42,1.66,1.66,0,0,1-.54-1.13,1.53,1.53,0,0,1,.38-1.13,1.55,1.55,0,0,1,1.08-.54,1.37,1.37,0,0,1,1.18.37,1.54,1.54,0,0,1,.58,1.09A1.5,1.5,0,0,1,138,242.51Zm-3.68,11.83,1.63-2.46a1.92,1.92,0,0,0-.12-1.51,2.11,2.11,0,0,0-1.21-1,1.8,1.8,0,0,0-1.55,0,2.49,2.49,0,0,0-1.05,1.21l-.12,2.8"/><path class="o" d="M126.61,234.57l1.21.25a2.71,2.71,0,0,1,1.05,1,2.08,2.08,0,0,1-.17,1.55,2.21,2.21,0,0,1-1,1,2,2,0,0,1-1.59-.13l-1-.83"/><ellipse class="i" cx="75.2" cy="147.04" rx="15.54" ry="15.72"/><path class="o" d="M71.29,131.79a18.23,18.23,0,0,1,2.6-.41l1.83-5.57,1.3,5.52a21.36,21.36,0,0,1,4.83,1.5l4-3.74-1.57,5.15a14.09,14.09,0,0,1,4,4l6.45-.83-4.94,3.8a7,7,0,0,0,.31.67,15.13,15.13,0,0,1,.62,7.86l4.22,2.39L90,152a7.58,7.58,0,0,1-.68,1.77A14.47,14.47,0,0,1,85,159.15a1.83,1.83,0,0,1-.37.31L86.12,165l-4.22-3.85a4,4,0,0,0-.52.31l-1,.42a15.54,15.54,0,0,1-8.42.57l-3.38,5.1.36-6.19a4,4,0,0,1-.52-.21,12.24,12.24,0,0,1-4.06-2.71l-5.56,3,.05-.05,3.38-5.62a14,14,0,0,1-1.87-3.59c-.07-.31-.16-.66-.26-1l-6.55.05,6-3.43a14.89,14.89,0,0,1,1-6.45l-5.62-4.83,7.44,1.35a15.19,15.19,0,0,1,4.83-4.32l-1.35-4.06,3.49,3a4.3,4.3,0,0,1,.67-.31C70.41,132,70.84,131.9,71.29,131.79Zm10.56,1-3.07,2.81a3.42,3.42,0,0,0-.31,2,1.92,1.92,0,0,0,1.25,1.41,2,2,0,0,0,1.82.31,2.18,2.18,0,0,0,1.61-1l1.09-4.16m6.4,15.5-3.53-2.24a2.25,2.25,0,0,0-1.88.21,1.9,1.9,0,0,0-1.09,1.35,2.56,2.56,0,0,0,.21,1.77A2.21,2.21,0,0,0,85.7,152H90M76.5,147.71a1.9,1.9,0,0,1-1.36.73A2,2,0,0,1,73,146.51a1.93,1.93,0,0,1,.47-1.4,2,2,0,0,1,1.35-.68,1.68,1.68,0,0,1,1.46.47,1.9,1.9,0,0,1,.21,2.81Zm-4.58,14.72,2-3.07a2.43,2.43,0,0,0-.16-1.87,2.62,2.62,0,0,0-1.51-1.2,2.2,2.2,0,0,0-1.92.05,3.11,3.11,0,0,0-1.3,1.51l-.16,3.49"/><path class="o" d="M62.35,137.83l1.51.31a3.45,3.45,0,0,1,1.3,1.25,2.59,2.59,0,0,1-.21,1.92,2.79,2.79,0,0,1-1.25,1.2,2.55,2.55,0,0,1-2-.16l-1.19-1"/></svg>